<svg width="355" height="312" viewBox="0 0 355 312" fill="none" xmlns="http://www.w3.org/2000/svg">
<path d="M277.376 108.955L278.61 112.019L281.13 116.29L285.043 118.05L289.213 119.627L284.955 121.148L280.919 123.725L278.17 127.508L276.742 131.258L275.526 127.573L272.988 123.922L269.093 121.543L264.507 120.243L269.842 118.429L273.199 116.488L275.966 112.085L277.376 108.955Z" fill="#FFD439"/>
<path d="M243.905 80.5298L246.216 86.0417L250.869 93.7466L257.926 97.0066L265.439 99.948L257.874 102.538L250.743 107.022L245.953 113.7L243.527 120.357L241.227 113.739L236.564 107.14L229.517 102.774L221.27 100.315L230.751 97.2327L236.69 93.8646L241.49 86.081L243.905 80.5298Z" fill="#FFD439"/>
<path d="M248.531 181.112C245.649 170.895 236.333 150.685 232.346 151.819C228.359 152.953 233.054 176.325 235.936 186.542C238.818 196.759 244.386 204.123 248.373 202.989C252.36 201.855 250.691 188.769 248.531 181.112Z" fill="#BBE387"/>
<path d="M260.378 170.811C258.544 164.308 253.209 149.253 250.026 150.158C246.843 151.064 249.547 166.021 251.382 172.525C253.216 179.028 256.855 186.195 260.038 185.289C263.221 184.384 261.753 175.685 260.378 170.811Z" fill="#BBE387"/>
<path d="M273.535 171.799C275.674 168.333 278.986 158.824 275.94 157.044C272.894 155.263 267.454 167.159 265.314 170.625C263.174 174.091 260.651 178.766 263.697 180.547C266.743 182.327 271.931 174.396 273.535 171.799Z" fill="#BBE387"/>
<path d="M229.487 204.376C226.605 194.158 218.601 172.138 214.614 173.272C210.627 174.405 215.322 197.777 218.204 207.995C221.086 218.212 226.654 225.575 230.641 224.441C234.627 223.307 232.369 214.593 229.487 204.376Z" fill="#BBE387"/>
<path d="M210.8 231.688C207.918 221.471 198.563 195.26 194.577 196.394C190.59 197.528 195.285 220.899 198.166 231.117C201.048 241.334 206.616 248.697 210.603 247.563C214.59 246.429 213.681 241.905 210.8 231.688Z" fill="#BBE387"/>
<path d="M266.291 209.018C277.139 208.573 301.29 202.792 301.177 198.741C301.065 194.689 278.793 198.428 267.945 198.873C257.097 199.318 246.334 198.436 246.446 202.488C246.559 206.539 255.444 209.463 266.291 209.018Z" fill="#BBE387"/>
<path d="M274.915 189.389C282.381 189.083 298.963 183.613 298.85 179.561C298.738 175.509 283.432 178.963 275.966 179.269C268.499 179.575 261.079 178.556 261.192 182.607C261.304 186.659 267.448 189.695 274.915 189.389Z" fill="#BBE387"/>
<path d="M251.897 234.945C262.745 234.5 286.896 228.719 286.783 224.667C286.671 220.615 262.47 224.079 251.622 224.524C240.774 224.969 231.939 224.362 232.052 228.414C232.164 232.466 241.049 235.389 251.897 234.945Z" fill="#BBE387"/>
<path d="M230.19 255.83C241.038 255.385 265.189 249.604 265.076 245.552C264.964 241.5 242.851 244.263 232.003 244.708C221.156 245.153 210.233 245.247 210.345 249.299C210.458 253.351 219.343 256.275 230.19 255.83Z" fill="#BBE387"/>
<path d="M266.38 176.211C232.32 233.756 206.732 257.22 148.674 282.211" stroke="#BBE387" stroke-width="3" stroke-linecap="round" stroke-linejoin="round"/>
<path d="M333.467 175.905L335.777 181.417L340.43 189.122L347.487 192.382L355 195.323L347.435 197.913L340.304 202.398L335.515 209.075L333.089 215.733L330.789 209.114L326.125 202.516L319.078 198.149L310.832 195.691L320.312 192.608L326.251 189.24L331.051 181.456L333.467 175.905Z" fill="#FFD439"/>
<path d="M128.621 121.346C121.715 107.166 102.564 79.8659 96.7898 82.3287C91.0158 84.7914 103.932 117.619 110.838 131.798C117.744 145.978 128.023 155.476 133.797 153.013C139.571 150.551 133.797 131.973 128.621 121.346Z" fill="#A1CF64"/>
<path d="M144.063 104.005C139.667 94.9789 127.838 74.3106 123.228 76.2769C118.619 78.2431 126.429 99.3142 130.824 108.34C135.22 117.366 142.52 126.977 147.13 125.011C151.74 123.045 147.357 110.769 144.063 104.005Z" fill="#A1CF64"/>
<path d="M164.288 102.717C166.679 97.2632 169.354 82.8291 164.288 80.8835C159.221 78.9379 153.904 97.2632 151.513 102.717C149.121 108.17 146.446 115.452 151.513 117.398C156.579 119.343 162.495 106.804 164.288 102.717Z" fill="#A1CF64"/>
<path d="M105.459 158.918C98.5529 144.738 80.9456 114.548 75.1716 117.01C69.3976 119.473 82.314 152.3 89.2197 166.48C96.1254 180.659 106.404 190.158 112.178 187.695C117.952 185.232 112.364 173.097 105.459 158.918Z" fill="#A1CF64"/>
<path d="M83.8404 202.27C76.9346 188.09 56.2391 152.12 50.4651 154.582C44.6911 157.045 57.6074 189.872 64.5132 204.052C71.4189 218.232 81.6978 227.73 87.4718 225.267C93.2458 222.804 90.7461 216.449 83.8404 202.27Z" fill="#A1CF64"/>
<path d="M162.502 158.033C178.865 155.15 214.112 141.805 212.938 135.969C211.764 130.133 178.865 140.139 162.502 143.022C146.138 145.905 129.573 146.85 130.747 152.686C131.921 158.522 146.138 160.916 162.502 158.033Z" fill="#A1CF64"/>
<path d="M170.738 127.868C182.002 125.884 205.829 114.55 204.656 108.715C203.482 102.879 181.093 111.033 169.829 113.017C158.566 115.002 147.045 115.059 148.219 120.895C149.393 126.73 159.475 129.853 170.738 127.868Z" fill="#A1CF64"/>
<path d="M147.06 198.495C163.424 195.612 198.67 182.267 197.496 176.431C196.322 170.595 160.426 180.601 144.063 183.484C127.699 186.367 114.131 187.313 115.305 193.148C116.479 198.984 130.696 201.378 147.06 198.495Z" fill="#A1CF64"/>
<path d="M119.265 233.177C135.629 230.294 170.875 216.949 169.701 211.113C168.527 205.277 135.629 213.838 119.265 216.721C102.901 219.604 86.3362 221.995 87.5102 227.83C88.6841 233.666 102.901 236.06 119.265 233.177Z" fill="#A1CF64"/>
<path d="M154.515 110.573C117.035 200.818 83.9841 240.03 2.00004 288.155" stroke="#A1CF64" stroke-width="3" stroke-linecap="round" stroke-linejoin="round"/>
<g filter="url(#filter0_d_233_972)">
<path d="M105.941 3.92295C106.732 2.46748 108.587 1.86526 110.083 2.57784L123.931 9.1753C125.427 9.88788 125.998 11.6454 125.206 13.1009L94.676 69.2273C94.2861 69.9441 93.6131 70.487 92.8119 70.7309L92.461 70.8377C92.1485 70.9329 91.8236 70.9803 91.4987 70.9781L90.2628 70.9697L88.624 70.7971L87.3303 70.6608C87.1009 70.6367 86.876 70.5876 86.6599 70.5145L84.0578 69.6353L82.6817 68.9797L81.3056 68.3241L79.0725 66.8549L77.8376 65.9426C77.6317 65.7905 77.4481 65.613 77.2913 65.4143L76.5016 64.4141L75.7672 63.4838C75.5741 63.2392 75.4239 62.9655 75.3222 62.673L75.2081 62.3447C74.9475 61.5949 75.0205 60.7661 75.4104 60.0494L105.941 3.92295Z" fill="#515151"/>
<path d="M106.418 3.04449C106.946 2.07419 108.183 1.6727 109.18 2.14776L124.834 9.60538C125.831 10.0804 126.212 11.2521 125.684 12.2224L125.589 12.3973L117.154 27.9038C116.736 28.6732 115.851 29.108 114.972 28.9767L111.829 28.5074C111.705 28.4889 111.584 28.4593 111.466 28.419L106.021 26.5576C105.873 26.5071 105.733 26.4403 105.603 26.3584L100.79 23.3333C100.686 23.2679 100.589 23.1932 100.5 23.1102L98.2455 21.0084C97.6147 20.4202 97.47 19.4953 97.8885 18.7259L106.323 3.21933L106.418 3.04449Z" fill="#F19A69"/>
<path d="M125.601 10.7818C125.589 12.3974 120.926 10.9868 115.606 8.45233C110.286 5.91791 106.323 3.21945 107.712 2.25942C109.1 1.29938 114.267 2.94995 117.707 4.58887C121.148 6.22779 125.614 9.16619 125.601 10.7818Z" fill="#CDCDCD"/>
<path d="M119.737 7.17709C119.48 8.13568 117.93 7.93786 116.306 7.16429C114.682 6.39073 113.611 5.32165 114.276 4.57586C114.942 3.83008 115.643 3.6053 117.707 4.58866C119.771 5.57202 119.994 6.2185 119.737 7.17709Z" fill="#B3B3B3"/>
<path d="M120.06 6.52056C120.256 7.08993 117.956 6.32898 116.978 5.863C116.296 5.53786 114.184 4.25248 114.618 3.92806C115.053 3.60364 116.312 3.92436 117.679 4.57518C119.045 5.226 119.865 5.9512 120.06 6.52056Z" fill="#CDCDCD"/>
</g>
<defs>
<filter id="filter0_d_233_972" x="71.0544" y="1.948" width="58.8675" height="77.0303" filterUnits="userSpaceOnUse" color-interpolation-filters="sRGB">
<feFlood flood-opacity="0" result="BackgroundImageFix"/>
<feColorMatrix in="SourceAlpha" type="matrix" values="0 0 0 0 0 0 0 0 0 0 0 0 0 0 0 0 0 0 127 0" result="hardAlpha"/>
<feOffset dy="4"/>
<feGaussianBlur stdDeviation="2"/>
<feComposite in2="hardAlpha" operator="out"/>
<feColorMatrix type="matrix" values="0 0 0 0 0 0 0 0 0 0 0 0 0 0 0 0 0 0 0.25 0"/>
<feBlend mode="normal" in2="BackgroundImageFix" result="effect1_dropShadow_233_972"/>
<feBlend mode="normal" in="SourceGraphic" in2="effect1_dropShadow_233_972" result="shape"/>
</filter>
</defs>
</svg>
