<svg width="333" height="300" viewBox="0 0 333 300" fill="none" xmlns="http://www.w3.org/2000/svg">
<path d="M108.881 173.813C103.052 185.909 86.8863 209.198 82.0125 207.097C77.1386 204.996 88.0413 176.993 93.8705 164.897C99.6996 152.801 108.376 144.698 113.25 146.799C118.124 148.9 113.25 164.748 108.881 173.813Z" fill="#A1CF64"/>
<path d="M121.916 188.606C118.205 196.305 108.221 213.936 104.329 212.259C100.438 210.582 107.031 192.607 110.741 184.908C114.452 177.208 120.614 169.009 124.505 170.687C128.396 172.364 124.696 182.836 121.916 188.606Z" fill="#A1CF64"/>
<path d="M138.988 189.705C141.006 194.357 143.264 206.67 138.988 208.329C134.711 209.989 130.223 194.357 128.204 189.705C126.186 185.053 123.928 178.841 128.204 177.181C132.481 175.522 137.475 186.218 138.988 189.705Z" fill="#A1CF64"/>
<path d="M89.3298 141.763C83.5007 153.859 68.6383 179.612 63.7645 177.511C58.8906 175.411 69.7933 147.407 75.6225 135.312C81.4517 123.216 90.1282 115.113 95.002 117.214C99.8759 119.315 95.159 129.667 89.3298 141.763Z" fill="#A1CF64"/>
<path d="M71.0818 104.781C65.2527 116.877 47.7835 147.562 42.9096 145.461C38.0358 143.36 48.9385 115.357 54.7676 103.261C60.5968 91.1652 69.2733 83.0627 74.1472 85.1635C79.021 87.2644 76.911 92.6854 71.0818 104.781Z" fill="#A1CF64"/>
<path d="M137.48 142.517C151.293 144.977 181.044 156.361 180.053 161.339C179.062 166.317 151.293 157.782 137.48 155.323C123.667 152.863 109.685 152.057 110.676 147.078C111.666 142.1 123.667 140.058 137.48 142.517Z" fill="#A1CF64"/>
<path d="M144.433 168.249C153.94 169.942 174.053 179.61 173.062 184.588C172.071 189.567 153.173 182.611 143.665 180.918C134.158 179.225 124.433 179.176 125.424 174.198C126.415 169.22 134.925 166.557 144.433 168.249Z" fill="#A1CF64"/>
<path d="M124.446 108.001C138.259 110.461 168.01 121.845 167.019 126.823C166.028 131.801 135.728 123.266 121.916 120.806C108.103 118.347 96.6503 117.54 97.6412 112.562C98.6321 107.584 110.633 105.542 124.446 108.001Z" fill="#A1CF64"/>
<path d="M100.984 78.416C114.797 80.8752 144.548 92.2593 143.557 97.2375C142.566 102.216 114.797 94.9132 100.984 92.4539C87.1712 89.9946 73.1886 87.955 74.1795 82.9768C75.1705 77.9987 87.1712 75.9567 100.984 78.416Z" fill="#A1CF64"/>
<path d="M130.738 183.003C99.1017 106.02 71.2031 72.5698 2.00003 31.5175" stroke="#A1CF64" stroke-width="3" stroke-linecap="round" stroke-linejoin="round"/>
<path d="M211.117 112.564C209.282 121.41 202.608 139.092 199.183 138.332C195.759 137.571 198.358 117.434 200.192 108.589C202.027 99.7429 206.289 93.1885 209.714 93.949C213.138 94.7095 212.491 105.935 211.117 112.564Z" fill="#BBE387"/>
<path d="M221.694 120.724C220.526 126.355 216.906 139.445 214.172 138.838C211.439 138.23 212.849 125.358 214.016 119.728C215.184 114.097 217.833 107.81 220.567 108.417C223.301 109.024 222.569 116.505 221.694 120.724Z" fill="#BBE387"/>
<path d="M232.719 119.208C234.722 122.048 238.064 129.973 235.602 131.645C233.139 133.317 227.866 123.47 225.863 120.629C223.859 117.789 221.462 113.938 223.924 112.266C226.387 110.594 231.218 117.079 232.719 119.208Z" fill="#BBE387"/>
<path d="M193.725 93.7384C191.89 102.584 186.426 121.741 183.002 120.981C179.578 120.22 182.176 100.083 184.01 91.2373C185.845 82.3916 190.108 75.8372 193.532 76.5977C196.956 77.3582 195.559 84.8927 193.725 93.7384Z" fill="#BBE387"/>
<path d="M176.398 71.448C174.564 80.2937 168.205 103.087 164.781 102.327C161.357 101.566 163.955 81.4289 165.79 72.5832C167.624 63.7375 171.887 57.1831 175.311 57.9436C178.735 58.7041 178.233 62.6023 176.398 71.448Z" fill="#BBE387"/>
<path d="M224.457 87.8958C233.621 87.7174 254.3 91.398 254.44 94.8529C254.581 98.3078 235.603 96.2684 226.439 96.4468C217.276 96.6252 208.26 97.9295 208.12 94.4745C207.979 91.0196 215.294 88.0742 224.457 87.8958Z" fill="#BBE387"/>
<path d="M232.861 104.163C239.168 104.04 253.453 107.845 253.593 111.3C253.734 114.755 240.641 112.601 234.333 112.724C228.026 112.846 221.835 114.096 221.695 110.641C221.554 107.186 226.553 104.286 232.861 104.163Z" fill="#BBE387"/>
<path d="M210.828 66.5646C219.991 66.3862 240.67 70.0668 240.811 73.5217C240.951 76.9767 220.364 75.2707 211.201 75.4491C202.037 75.6275 194.63 76.5983 194.49 73.1434C194.35 69.6884 201.664 66.743 210.828 66.5646Z" fill="#BBE387"/>
<path d="M191.331 49.9006C200.494 49.7222 221.173 53.4028 221.314 56.8577C221.454 60.3127 202.667 59.0965 193.503 59.2749C184.34 59.4533 175.134 59.9343 174.993 56.4793C174.853 53.0244 182.167 50.079 191.331 49.9006Z" fill="#BBE387"/>
<path d="M226.436 115.82C194.406 68.5819 171.49 49.9221 121.134 31.6298" stroke="#BBE387" stroke-width="3" stroke-linecap="round" stroke-linejoin="round"/>
<path d="M305.104 125.314C304.309 126.768 302.458 127.356 300.97 126.629L290.15 121.338C288.662 120.61 288.1 118.841 288.895 117.388L314.684 70.2177C315.074 69.5049 315.743 68.9673 316.538 68.7278L316.579 68.7157C316.891 68.6216 317.216 68.5758 317.54 68.58L318.507 68.5924L319.89 68.748L320.926 68.8646C321.156 68.8905 321.381 68.9416 321.598 69.0171L323.737 69.7622L324.895 70.3284L326.053 70.8946L327.929 72.1592L328.917 72.9065C329.123 73.0619 329.306 73.243 329.462 73.4452L330.086 74.2544L330.655 74.9934C330.847 75.2416 330.995 75.5186 331.094 75.8141L331.107 75.8523C331.36 76.6046 331.283 77.4317 330.893 78.1445L305.104 125.314Z" fill="#515151"/>
<path d="M304.563 126.304C304.067 127.211 302.912 127.578 301.983 127.124L289.137 120.842C288.208 120.388 287.857 119.284 288.353 118.377L295.458 105.382C295.878 104.615 296.759 104.186 297.634 104.324L300.03 104.7C300.155 104.72 300.277 104.75 300.395 104.792L304.916 106.385C305.064 106.437 305.205 106.506 305.335 106.59L309.323 109.158C309.427 109.225 309.525 109.302 309.613 109.386L311.323 111.018C311.948 111.614 312.087 112.542 311.668 113.309L304.563 126.304Z" fill="#F19A69"/>
<path d="M288.334 119.756C288.353 118.377 292.281 119.604 296.757 121.793C301.234 123.982 304.563 126.304 303.385 127.116C302.208 127.928 297.856 126.494 294.961 125.078C292.067 123.663 288.314 121.134 288.334 119.756Z" fill="#CDCDCD"/>
<path d="M293.264 122.86C293.486 122.044 294.793 122.22 296.159 122.888C297.526 123.556 298.424 124.474 297.858 125.107C297.292 125.739 296.699 125.928 294.962 125.078C293.225 124.229 293.041 123.676 293.264 122.86Z" fill="#B3B3B3"/>
<path d="M292.987 123.418C292.825 122.932 294.761 123.593 295.584 123.995C296.159 124.276 297.934 125.383 297.565 125.657C297.197 125.932 296.135 125.652 294.986 125.09C293.836 124.528 293.148 123.905 292.987 123.418Z" fill="#CDCDCD"/>
<path d="M68.4749 255.132L71.0818 261.295L76.2955 269.924L84.1161 273.623L92.4354 276.97L84.1161 279.786L76.2955 284.717L71.0818 292.113L68.4749 299.51L65.8681 292.113L60.6544 284.717L52.8338 279.786L43.7097 276.97L54.1372 273.623L60.6544 269.924L65.8681 261.295L68.4749 255.132Z" fill="#FFD439"/>
<path d="M106.911 237.715L108.187 240.974L110.81 245.51L114.923 247.358L119.309 249.009L114.804 250.663L110.524 253.441L107.592 257.497L106.055 261.507L104.803 257.587L102.156 253.711L98.0674 251.203L93.2403 249.85L98.8837 247.876L102.442 245.78L105.398 241.064L106.911 237.715Z" fill="#FFD439"/>
</svg>
