<svg width="255" height="288" viewBox="0 0 255 288" fill="none" xmlns="http://www.w3.org/2000/svg">
<path d="M51.0687 104.274C53.4198 112.466 61.083 128.685 64.4102 127.793C67.7373 126.902 63.9395 108.17 61.5884 99.9784C59.2373 91.7864 54.6343 85.8682 51.3071 86.7597C47.98 87.6512 49.3067 98.1348 51.0687 104.274Z" fill="#BBE387"/>
<path d="M41.1483 112.473C42.6448 117.687 47.016 129.762 49.6723 129.05C52.3286 128.339 50.1484 116.352 48.6519 111.138C47.1554 105.923 44.1585 100.171 41.5022 100.883C38.8459 101.594 40.0267 108.565 41.1483 112.473Z" fill="#BBE387"/>
<path d="M30.1918 111.628C28.3924 114.394 25.5871 121.994 28.116 123.432C30.645 124.87 35.2356 115.368 37.035 112.601C38.8344 109.835 40.9597 106.103 38.4308 104.665C35.9018 103.227 31.5404 109.555 30.1918 111.628Z" fill="#BBE387"/>
<path d="M67.0482 85.7267C69.3993 93.9187 75.9606 111.582 79.2877 110.69C82.6148 109.799 78.817 91.0676 76.466 82.8756C74.1149 74.6836 69.5118 68.7654 66.1847 69.6569C62.8576 70.5484 64.6972 77.5348 67.0482 85.7267Z" fill="#BBE387"/>
<path d="M82.7504 63.9368C85.1014 72.1288 92.7675 93.1522 96.0946 92.2607C99.4217 91.3692 95.6239 72.6379 93.2728 64.4459C90.9218 56.2539 86.3187 50.3357 82.9916 51.2272C79.6645 52.1187 80.3993 55.7448 82.7504 63.9368Z" fill="#BBE387"/>
<path d="M36.4079 81.8591C27.3682 82.1709 7.21899 86.7002 7.293 89.9446C7.367 93.189 25.941 90.2862 34.9807 89.9744C44.0205 89.6626 52.9839 90.4134 52.9099 87.169C52.8358 83.9246 45.4477 81.5473 36.4079 81.8591Z" fill="#BBE387"/>
<path d="M29.1277 97.5393C22.9056 97.7539 9.06417 102.066 9.13817 105.31C9.21218 108.554 21.9806 105.852 28.2027 105.637C34.4247 105.423 40.6018 106.27 40.5278 103.025C40.4538 99.7808 35.3498 97.3247 29.1277 97.5393Z" fill="#BBE387"/>
<path d="M48.5265 61.1608C39.4868 61.4726 19.3376 66.0019 19.4116 69.2463C19.4856 72.4907 39.6652 69.8163 48.705 69.5045C57.7448 69.1927 65.1025 69.7151 65.0285 66.4707C64.9545 63.2263 57.5663 60.849 48.5265 61.1608Z" fill="#BBE387"/>
<path d="M66.7128 44.5286C57.6731 44.8404 37.5239 49.3698 37.5979 52.6141C37.6719 55.8585 56.1085 53.7371 65.1483 53.4253C74.188 53.1135 83.2888 53.0829 83.2148 49.8385C83.1408 46.5941 75.7526 44.2168 66.7128 44.5286Z" fill="#BBE387"/>
<path d="M36.174 108.125C64.8308 62.1925 86.2635 43.5117 134.756 23.741" stroke="#BBE387" stroke-width="3" stroke-linecap="round" stroke-linejoin="round"/>
<path d="M146.999 160.821C152.753 172.173 168.709 194.031 173.519 192.059C178.33 190.087 167.569 163.805 161.815 152.452C156.062 141.099 147.498 133.494 142.687 135.466C137.877 137.438 142.687 152.312 146.999 160.821Z" fill="#A1CF64"/>
<path d="M134.134 174.705C137.796 181.931 147.651 198.479 151.492 196.904C155.333 195.33 148.826 178.46 145.164 171.234C141.501 164.007 135.419 156.312 131.578 157.886C127.738 159.46 131.389 169.289 134.134 174.705Z" fill="#A1CF64"/>
<path d="M117.284 175.736C115.292 180.102 113.063 191.659 117.284 193.216C121.505 194.774 125.935 180.102 127.927 175.736C129.92 171.37 132.148 165.54 127.927 163.982C123.706 162.424 118.777 172.464 117.284 175.736Z" fill="#A1CF64"/>
<path d="M166.297 130.739C172.051 142.092 186.72 166.263 191.531 164.292C196.341 162.32 185.58 136.037 179.827 124.684C174.073 113.332 165.509 105.727 160.699 107.699C155.888 109.67 160.544 119.386 166.297 130.739Z" fill="#A1CF64"/>
<path d="M184.308 96.0296C190.062 107.382 207.304 136.182 212.115 134.21C216.926 132.238 206.164 105.955 200.411 94.6028C194.657 83.2501 186.093 75.6453 181.283 77.6171C176.472 79.5889 178.555 84.6769 184.308 96.0296Z" fill="#A1CF64"/>
<path d="M118.772 131.447C105.138 133.756 75.773 144.44 76.751 149.113C77.7291 153.785 105.138 145.774 118.772 143.466C132.405 141.158 146.206 140.4 145.228 135.728C144.25 131.056 132.405 129.139 118.772 131.447Z" fill="#A1CF64"/>
<path d="M111.909 155.598C102.525 157.187 82.6732 166.261 83.6513 170.934C84.6294 175.606 103.283 169.077 112.667 167.489C122.051 165.9 131.65 165.854 130.672 161.182C129.693 156.509 121.293 154.01 111.909 155.598Z" fill="#A1CF64"/>
<path d="M131.637 99.0519C118.003 101.36 88.6381 112.045 89.6161 116.717C90.5942 121.389 120.501 113.379 134.134 111.07C147.768 108.762 159.072 108.005 158.094 103.333C157.115 98.6602 145.27 96.7437 131.637 99.0519Z" fill="#A1CF64"/>
<path d="M154.794 71.2844C141.161 73.5925 111.795 84.2772 112.774 88.9496C113.752 93.6219 141.161 86.768 154.794 84.4599C168.428 82.1517 182.229 80.2374 181.251 75.565C180.273 70.8927 168.428 68.9762 154.794 71.2844Z" fill="#A1CF64"/>
<path d="M125.426 169.446C156.652 97.192 184.189 65.7973 252.494 27.2672" stroke="#A1CF64" stroke-width="3" stroke-linecap="round" stroke-linejoin="round"/>
<path d="M125.704 240.503C124.834 239.093 125.331 237.35 126.814 236.611L137.197 231.433C138.679 230.694 140.586 231.238 141.456 232.648L168.227 276.071C168.65 276.757 168.758 277.561 168.524 278.294C168.435 278.576 168.297 278.84 168.116 279.077L167.576 279.786L166.685 280.726L166.018 281.43C165.869 281.587 165.7 281.728 165.515 281.849L163.699 283.042L162.574 283.603L161.449 284.164L159.324 284.893L158.137 285.233C157.888 285.305 157.628 285.346 157.365 285.356L156.324 285.396L155.37 285.433C155.05 285.445 154.728 285.41 154.415 285.33C153.6 285.119 152.899 284.611 152.475 283.925L125.704 240.503Z" fill="#515151"/>
<path d="M125.065 239.467C124.548 238.629 124.844 237.593 125.725 237.154L138.286 230.89C139.167 230.451 140.3 230.774 140.817 231.612L148.179 243.553C148.64 244.301 148.534 245.218 147.916 245.812L146.314 247.353C146.228 247.435 146.134 247.51 146.033 247.576L142.177 250.088C142.051 250.17 141.914 250.238 141.769 250.291L137.358 251.902C137.242 251.944 137.122 251.976 136.999 251.998L134.697 252.404C133.81 252.56 132.888 252.156 132.427 251.407L125.065 239.467Z" fill="#F19A69"/>
<path d="M139.631 230.881C140.817 231.612 137.603 233.876 133.253 236.045C128.904 238.214 125.065 239.467 125.004 238.174C124.943 236.882 128.569 234.412 131.382 233.01C134.195 231.607 138.445 230.149 139.631 230.881Z" fill="#CDCDCD"/>
<path d="M134.237 232.909C134.825 233.498 133.956 234.372 132.629 235.034C131.301 235.696 130.013 235.883 129.773 235.135C129.533 234.388 129.693 233.852 131.381 233.01C133.069 232.169 133.65 232.32 134.237 232.909Z" fill="#B3B3B3"/>
<path d="M133.904 232.414C134.415 232.548 132.782 233.635 131.982 234.034C131.424 234.312 129.491 235.048 129.454 234.633C129.417 234.217 130.241 233.579 131.358 233.022C132.475 232.465 133.392 232.28 133.904 232.414Z" fill="#CDCDCD"/>
<path d="M37.3089 135.329L39.882 141.114L45.028 149.212L52.7471 152.683L60.9584 155.825L52.7471 158.468L45.028 163.096L39.882 170.038L37.3089 176.98L34.7359 170.038L29.5899 163.096L21.8708 158.468L12.8651 155.825L23.1573 152.683L29.5899 149.212L34.7359 141.114L37.3089 135.329Z" fill="#FFD439"/>
<path d="M61.1878 185.835L62.9146 189.489L66.2978 194.63L71.1965 196.924L76.3964 199.02L71.314 200.536L66.5796 203.298L63.5017 207.548L62.0332 211.84L60.2829 207.464L56.9232 203.045L52.001 200.029L46.3144 198.231L52.6883 196.438L56.6414 194.376L59.6958 189.404L61.1878 185.835Z" fill="#FFD439"/>
<path d="M184.693 222.858L186.42 226.512L189.803 231.653L194.702 233.947L199.902 236.044L194.819 237.559L190.085 240.322L187.007 244.572L185.539 248.864L183.788 244.487L180.429 240.068L175.506 237.052L169.82 235.254L176.194 233.461L180.147 231.4L183.201 226.428L184.693 222.858Z" fill="#FFD439"/>
</svg>
