<svg width="326" height="237" viewBox="0 0 326 237" fill="none" xmlns="http://www.w3.org/2000/svg">
<path d="M221.461 66.0297C227.054 53.3205 242.563 28.8512 247.238 31.0585C251.914 33.2659 241.454 62.6891 235.862 75.3983C230.27 88.1076 221.946 96.621 217.27 94.4136C212.594 92.2062 217.27 75.5548 221.461 66.0297Z" fill="#A1CF64"/>
<path d="M208.957 50.4868C212.516 42.3971 222.095 23.872 225.828 25.6343C229.561 27.3967 223.237 46.2828 219.677 54.3725C216.117 62.4623 210.205 71.0771 206.472 69.3147C202.739 67.5524 206.289 56.5498 208.957 50.4868Z" fill="#A1CF64"/>
<path d="M192.578 49.3323C190.642 44.4444 188.475 31.5071 192.578 29.7632C196.681 28.0193 200.987 44.4444 202.923 49.3323C204.86 54.2203 207.026 60.747 202.923 62.4909C198.82 64.2347 194.029 52.9957 192.578 49.3323Z" fill="#A1CF64"/>
<path d="M240.218 99.7056C245.811 86.9964 260.069 59.9366 264.745 62.144C269.421 64.3514 258.961 93.7746 253.369 106.484C247.776 119.193 239.452 127.706 234.777 125.499C230.101 123.292 234.626 112.415 240.218 99.7056Z" fill="#A1CF64"/>
<path d="M257.725 138.562C263.317 125.853 280.077 93.6124 284.753 95.8198C289.428 98.0271 278.969 127.45 273.376 140.16C267.784 152.869 259.46 161.382 254.784 159.175C250.108 156.967 252.133 151.271 257.725 138.562Z" fill="#A1CF64"/>
<path d="M194.024 98.9124C180.773 96.3285 152.23 84.3671 153.181 79.1365C154.132 73.9059 180.773 82.874 194.024 85.4579C207.276 88.0419 220.691 88.8897 219.74 94.1203C218.789 99.3509 207.276 101.496 194.024 98.9124Z" fill="#A1CF64"/>
<path d="M187.354 71.8759C178.233 70.0973 158.937 59.939 159.888 54.7084C160.839 49.4778 178.969 56.7864 188.09 58.5649C197.211 60.3435 206.541 60.3948 205.591 65.6254C204.64 70.856 196.475 73.6545 187.354 71.8759Z" fill="#A1CF64"/>
<path d="M206.529 135.179C193.278 132.595 164.735 120.634 165.686 115.403C166.636 110.172 195.705 119.14 208.957 121.724C222.208 124.308 233.195 125.156 232.245 130.387C231.294 135.617 219.781 137.763 206.529 135.179Z" fill="#A1CF64"/>
<path d="M229.038 166.264C215.786 163.681 187.244 151.719 188.194 146.489C189.145 141.258 215.786 148.931 229.038 151.515C242.289 154.099 255.704 156.242 254.753 161.472C253.803 166.703 242.289 168.848 229.038 166.264Z" fill="#A1CF64"/>
<path d="M200.492 56.3743C230.844 137.261 257.609 172.407 324 215.541" stroke="#A1CF64" stroke-width="3" stroke-linecap="round" stroke-linejoin="round"/>
<path d="M123.102 119.598C125.436 110.44 132.98 92.3267 136.209 93.3431C139.437 94.3594 135.635 115.308 133.301 124.465C130.968 133.623 126.459 140.223 123.23 139.207C120.002 138.19 121.353 126.462 123.102 119.598Z" fill="#BBE387"/>
<path d="M113.508 110.366C114.994 104.537 119.314 91.0432 121.891 91.8547C124.469 92.6661 122.279 106.073 120.794 111.902C119.308 117.731 116.361 124.154 113.784 123.343C111.206 122.531 112.395 114.735 113.508 110.366Z" fill="#BBE387"/>
<path d="M102.854 111.251C101.121 108.144 98.4395 99.6215 100.906 98.0258C103.373 96.4301 107.778 107.093 109.511 110.199C111.244 113.305 113.287 117.496 110.821 119.092C108.354 120.687 104.152 113.579 102.854 111.251Z" fill="#BBE387"/>
<path d="M138.524 140.45C140.858 131.292 147.339 111.555 150.568 112.571C153.797 113.587 149.994 134.536 147.661 143.693C145.327 152.851 140.818 159.451 137.59 158.435C134.361 157.418 136.19 149.607 138.524 140.45Z" fill="#BBE387"/>
<path d="M153.657 164.93C155.991 155.772 163.566 132.279 166.795 133.295C170.023 134.312 166.221 155.26 163.888 164.418C161.554 173.575 157.045 180.175 153.816 179.159C150.588 178.143 151.324 174.087 153.657 164.93Z" fill="#BBE387"/>
<path d="M108.72 144.611C99.9351 144.212 80.3775 139.031 80.4686 135.399C80.5597 131.767 98.5959 135.119 107.38 135.518C116.165 135.917 124.882 135.126 124.79 138.757C124.699 142.389 117.504 145.01 108.72 144.611Z" fill="#BBE387"/>
<path d="M101.736 127.017C95.6899 126.743 82.2619 121.84 82.353 118.208C82.4441 114.577 94.8387 117.672 100.885 117.947C106.931 118.221 112.94 117.307 112.849 120.939C112.758 124.57 107.783 127.292 101.736 127.017Z" fill="#BBE387"/>
<path d="M120.376 167.849C111.592 167.45 92.034 162.269 92.1251 158.637C92.2162 155.005 111.814 158.11 120.599 158.509C129.383 158.908 136.538 158.364 136.447 161.995C136.356 165.627 129.161 168.248 120.376 167.849Z" fill="#BBE387"/>
<path d="M137.954 186.568C129.17 186.169 109.612 180.988 109.703 177.356C109.794 173.725 127.702 176.201 136.486 176.6C145.271 176.999 154.116 177.083 154.025 180.715C153.934 184.346 146.739 186.967 137.954 186.568Z" fill="#BBE387"/>
<path d="M108.648 115.205C136.23 166.784 156.951 187.814 203.967 210.214" stroke="#BBE387" stroke-width="3" stroke-linecap="round" stroke-linejoin="round"/>
<g filter="url(#filter0_d_36_1058)">
<path d="M5.38645 87.6501C4.46284 86.2745 4.80393 84.3744 6.14829 83.4059L15.6524 76.5594C16.9967 75.591 18.8353 75.921 19.7589 77.2966L50.5999 123.229C51.0399 123.884 51.2098 124.695 51.0727 125.485L51.0589 125.565C51.0027 125.889 50.8961 126.202 50.7432 126.492L50.3044 127.326L49.5455 128.464L48.9869 129.302C48.8539 129.501 48.6986 129.684 48.5242 129.846L46.912 131.347L45.8854 132.087L45.0339 132.7C44.9173 132.784 44.7951 132.859 44.6682 132.925L42.8837 133.855L41.7894 134.348C41.5456 134.457 41.2888 134.533 41.0262 134.573L40.0384 134.721L39.1316 134.857C38.8158 134.905 38.4952 134.899 38.1823 134.841L38.1052 134.827C37.3421 134.685 36.6675 134.238 36.2275 133.582L5.38645 87.6501Z" fill="#515151"/>
<path d="M4.78508 86.7544C4.1936 85.8735 4.41204 84.6567 5.27297 84.0365L16.5277 75.9289C17.3886 75.3087 18.566 75.5201 19.1575 76.401L27.6635 89.069C28.1456 89.7871 28.122 90.7488 27.6049 91.4526L26.2007 93.364C26.1232 93.4694 26.0361 93.5669 25.9406 93.6552L22.505 96.829C22.3848 96.9401 22.252 97.0357 22.1097 97.1138L18.0415 99.3455C17.9284 99.4075 17.8098 99.4582 17.6875 99.4967L15.4688 100.195C14.6518 100.452 13.7732 100.141 13.291 99.4225L4.78508 86.7544Z" fill="#F19A69"/>
<path d="M17.9304 75.7073C19.1577 76.4009 16.2973 79.2503 12.3284 82.1093C8.35959 84.9684 4.78523 86.7544 4.58455 85.3213C4.38387 83.8882 7.61998 80.7681 10.1865 78.9193C12.753 77.0704 16.7031 75.0137 17.9304 75.7073Z" fill="#CDCDCD"/>
<path d="M12.9366 78.5159C13.5693 79.1119 12.8252 80.1738 11.6139 81.0464C10.4025 81.9191 9.17713 82.2582 8.86315 81.4503C8.54917 80.6423 8.64598 80.029 10.1859 78.9197C11.7258 77.8104 12.3039 77.9198 12.9366 78.5159Z" fill="#B3B3B3"/>
<path d="M12.5599 77.9984C13.0689 78.0951 11.6085 79.4726 10.8788 79.9983C10.3696 80.3651 8.58113 81.3817 8.50005 80.923C8.41897 80.4643 9.14563 79.6691 10.1648 78.9349C11.184 78.2007 12.0509 77.9017 12.5599 77.9984Z" fill="#CDCDCD"/>
</g>
<path d="M114.417 34.075L116.288 39.0154L120.056 45.9213L125.771 48.8433L131.855 51.4797L125.728 53.8013L119.954 57.8205L116.075 63.8054L114.111 69.7726L112.248 63.8406L108.472 57.9262L102.765 54.0127L96.0868 51.8089L103.764 49.0459L108.574 46.027L112.461 39.0506L114.417 34.075Z" fill="#FFD439"/>
<path d="M97.7635 66.2791L98.7692 68.8191L100.763 72.3821L103.712 73.9347L106.845 75.3456L103.74 76.4628L100.832 78.4495L98.9128 81.4594L97.9703 84.4812L96.9588 81.4356L94.9704 78.3781L92.0164 76.32L88.5838 75.1232L92.4762 73.7978L94.9014 72.3107L96.8152 68.7953L97.7635 66.2791Z" fill="#FFD439"/>
<path d="M260.325 0.494168L261.331 3.03415L263.325 6.59724L266.273 8.14979L269.407 9.56072L266.302 10.6779L263.394 12.6646L261.474 15.6745L260.532 18.6963L259.52 15.6507L257.532 12.5932L254.578 10.535L251.145 9.33826L255.038 8.01292L257.463 6.52583L259.377 3.01034L260.325 0.494168Z" fill="#FFD439"/>
<defs>
<filter id="filter0_d_36_1058" x="0.452515" y="75.5696" width="54.6665" height="67.3196" filterUnits="userSpaceOnUse" color-interpolation-filters="sRGB">
<feFlood flood-opacity="0" result="BackgroundImageFix"/>
<feColorMatrix in="SourceAlpha" type="matrix" values="0 0 0 0 0 0 0 0 0 0 0 0 0 0 0 0 0 0 127 0" result="hardAlpha"/>
<feOffset dy="4"/>
<feGaussianBlur stdDeviation="2"/>
<feComposite in2="hardAlpha" operator="out"/>
<feColorMatrix type="matrix" values="0 0 0 0 0 0 0 0 0 0 0 0 0 0 0 0 0 0 0.25 0"/>
<feBlend mode="normal" in2="BackgroundImageFix" result="effect1_dropShadow_36_1058"/>
<feBlend mode="normal" in="SourceGraphic" in2="effect1_dropShadow_36_1058" result="shape"/>
</filter>
</defs>
</svg>
